<?xml version="1.0" standalone="no"?>
<!DOCTYPE svg PUBLIC "-//W3C//DTD SVG 20010904//EN"
 "http://www.w3.org/TR/2001/REC-SVG-20010904/DTD/svg10.dtd">
<svg version="1.0" xmlns="http://www.w3.org/2000/svg"
 width="100.000000pt" height="100.000000pt" viewBox="0 0 100.000000 100.000000"
 preserveAspectRatio="xMidYMid meet">

<g transform="translate(0.000000,100.000000) scale(0.100000,-0.100000)"
fill="#000000" stroke="none">
<path d="M102 805 c-56 -24 -62 -55 -62 -305 0 -253 6 -281 64 -305 52 -22
740 -22 792 0 58 24 64 52 64 305 0 253 -6 281 -64 305 -51 22 -745 21 -794 0z
m802 -41 c9 -8 16 -31 16 -50 l0 -34 -420 0 -420 0 0 34 c0 68 -11 66 420 66
340 0 391 -2 404 -16z m16 -348 c0 -136 -3 -167 -16 -180 -13 -14 -64 -16
-404 -16 -340 0 -391 2 -404 16 -13 13 -16 44 -16 180 l0 164 420 0 420 0 0
-164z"/>
<path d="M180 500 c0 -19 7 -20 160 -20 153 0 160 1 160 20 0 19 -7 20 -160
20 -153 0 -160 -1 -160 -20z"/>
</g>
</svg>
