<svg id="Component_96_13" data-name="Component 96 – 13" xmlns="http://www.w3.org/2000/svg" xmlns:xlink="http://www.w3.org/1999/xlink" width="28" height="28" viewBox="0 0 28 28">
  <defs>
    <clipPath id="clip-path">
      <rect id="Rectangle_15888" data-name="Rectangle 15888" width="28" height="28" fill="none"/>
    </clipPath>
  </defs>
  <g id="Group_35526" data-name="Group 35526" clip-path="url(#clip-path)">
    <path id="Path_6597" data-name="Path 6597" d="M26.418,8.891l-12.123-7a.875.875,0,0,0-.875,0L1.3,8.891a.876.876,0,0,0-.32,1.2l1.75,3.031a.875.875,0,0,0,1.195.321l.9-.517v9.358a2.247,2.247,0,0,0,2.245,2.245H20.654A2.247,2.247,0,0,0,22.9,22.279V12.922l.894.517a.892.892,0,0,0,.665.087.881.881,0,0,0,.531-.408l1.75-3.031a.876.876,0,0,0-.321-1.2m-14.6,13.883V16.892a.534.534,0,0,1,.533-.534h3.016a.534.534,0,0,1,.534.534v5.882Zm9.333-.495a.5.5,0,0,1-.5.495h-3V16.892a2.286,2.286,0,0,0-2.284-2.284H12.35a2.286,2.286,0,0,0-2.283,2.284v5.882H7.061a.5.5,0,0,1-.495-.495V11.911L13.858,7.7l7.292,4.211Zm2.762-10.794L14.3,5.932a.869.869,0,0,0-.875,0L3.8,11.485,2.929,9.969,13.858,3.659,24.786,9.969Z" transform="translate(0.143 0.296)" fill="#4d4d4d"/>
  </g>
</svg>
