<svg id="ic_account" data-name="ic/account" xmlns="http://www.w3.org/2000/svg" width="48" height="48" viewBox="0 0 48 48"><rect id="Rectangle_1706" data-name="Rectangle 1706" width="48" height="48" fill="none"/><path id="Path_4973" data-name="Path 4973" d="M14,19.1a7.6,7.6,0,1,0-7.6-7.6A7.6,7.6,0,0,0,14,19.1" transform="translate(9.9 7.298)" fill="#4d4d4d"/><path id="Path_4974" data-name="Path 4974" d="M41,20.4c0-.032,0-.062,0-.094a10.5,10.5,0,0,0-.07-1.388A20.341,20.341,0,0,0,20.6,0,20.406,20.406,0,0,0,.092,18.564,7.387,7.387,0,0,0,0,20.37l0,.03,0,.02c0,.1,0,.17,0,.28a20.5,20.5,0,1,0,41,0c0-.1,0-.158,0-.248l0-.052M20.6,2.8A17.455,17.455,0,0,1,38,20.4,18.066,18.066,0,0,1,33.6,32a14.582,14.582,0,0,0-13.2-7.6c-6,0-11,3.2-13,7.6A17.052,17.052,0,0,1,3,20.4,17.626,17.626,0,0,1,20.6,2.8" transform="translate(3.5 3.398)" fill="#4d4d4d"/></svg>
