<!--?xml version="1.0" encoding="utf-8"?-->
<!-- Generator: Adobe Illustrator 18.1.1, SVG Export Plug-In . SVG Version: 6.00 Build 0)  -->

<svg version="1.1" id="_x32_" xmlns="http://www.w3.org/2000/svg" xmlns:xlink="http://www.w3.org/1999/xlink" x="0px" y="0px" viewBox="0 0 512 512" style="width: 256px; height: 256px; opacity: 1;" xml:space="preserve">
<style type="text/css">
	.st0{fill:#4B4B4B;}
</style><style class="darkreader darkreader--sync" media="screen"></style>
<g>
	<path class="st0" d="M256,0C114.618,0,0,114.617,0,256c0,141.382,114.618,256,256,256s256-114.618,256-256
		C512,114.617,397.383,0,256,0z M375.688,364.187c-3.094,3.602-32.18,41.883-78.477,25.758
		c-46.312-16.125-81.992-45.398-108.187-76.492c-26.203-31.094-49-71.218-57.047-119.586c-8.031-48.367,34.618-70.531,38.695-72.977
		c4.078-2.446,21.969-6.687,30,5.258c8.008,11.946,22.313,48.344,23.578,57.126c1.273,8.781-7.922,18.5-18.492,20.507
		c-10.578,2.008-10.047,7.485-10.047,7.485s5.875,21.367,40.484,62.438c34.617,41.07,54.672,50.484,54.672,50.484
		s5.297,1.446,9.078-8.633c3.766-10.078,14.906-17.492,23.344-14.75c8.438,2.742,41.883,23.007,52.305,32.93
		C386,343.672,378.79,360.586,375.688,364.187z" style="fill: rgb(75, 75, 75); --darkreader-inline-fill: #b9b3a9;" data-darkreader-inline-fill=""></path>
</g>
</svg>
